<svg xmlns="http://www.w3.org/2000/svg" width="1200" height="630" viewBox="0 0 1200 630">
  <rect width="1200" height="630" fill="#FAFBFC"/>
  <rect x="80" y="78" width="1040" height="474" rx="28" fill="#D6ECF8" opacity=".72" stroke="#E2EAF0" stroke-width="3"/>
  <rect x="126" y="126" width="310" height="360" rx="18" fill="#FFFFFF" opacity=".82" stroke="#E2EAF0" stroke-width="3"/>
  <rect x="478" y="126" width="596" height="84" rx="18" fill="#FFF3C0" stroke="#E2EAF0" stroke-width="3"/>
  <rect x="478" y="238" width="596" height="248" rx="18" fill="#FFFFFF" opacity=".8" stroke="#E2EAF0" stroke-width="3"/>
  <path d="M170 190h190M170 242h138M170 324h210M170 376h156" stroke="#3A6080" stroke-width="18" stroke-linecap="round" opacity=".9"/>
  <path d="M524 169h276M524 306h420M524 362h360M524 418h300" stroke="#3A6080" stroke-width="16" stroke-linecap="round" opacity=".9"/>
  <circle cx="998" cy="169" r="28" fill="#FFDF90"/>
  <path d="M944 486c52-5 89-41 93-93-54 2-93 39-93 93Z" fill="#D8EDD8" stroke="#3A6080" stroke-width="6"/>
  <text x="126" y="570" fill="#3A6080" font-family="Georgia, serif" font-size="52" font-weight="700">Skill Library</text>
</svg>
